<?xml version="1.0" encoding="UTF-8" standalone="no"?>
<svg
   version="1.1"
   id="Capa_1"
   x="0px"
   y="0px"
   width="36.447px"
   height="36.447px"
   viewBox="0 0 36.447 36.447"
   style="enable-background:new 0 0 36.447 36.447;"
   xml:space="preserve"
   sodipodi:docname="calendar-icon.svg"
   inkscape:version="1.1 (c68e22c387, 2021-05-23)"
   inkscape:export-filename="C:\Users\leonada1\IdeaProjects\Okta login migration\labinventory-fend-dev\logo.png"
   inkscape:export-xdpi="254.03076"
   inkscape:export-ydpi="254.03076"
   xmlns:inkscape="http://www.inkscape.org/namespaces/inkscape"
   xmlns:sodipodi="http://sodipodi.sourceforge.net/DTD/sodipodi-0.dtd"
   xmlns:xlink="http://www.w3.org/1999/xlink"
   xmlns="http://www.w3.org/2000/svg"
   xmlns:svg="http://www.w3.org/2000/svg">
  <style
   id="style2">
    path, rect{
      fill: url(#linearGradient918);
      fill-opacity:1;
      stroke-width:0.568511;
    }
  #stop912{
    stop-color:#ec0d82;
  }
  #stop914{
    stop-color:#ffe93c;
  }

    @media (prefers-color-scheme: dark) {
        #stop912{
            stop-color:#d90373;
        }
        #stop914{
            stop-color:#fee201;
        }
    }
  </style>
    <defs
   id="defs65">
		<linearGradient
   inkscape:collect="always"
   id="linearGradient916">
			<stop
   style="stop-opacity:1"
   offset="0"
   id="stop912" />
            <stop
   style="stop-opacity:1"
   offset="1"
   id="stop914" />
		</linearGradient>
        <linearGradient
   inkscape:collect="always"
   xlink:href="#linearGradient916"
   id="linearGradient918"
   x1="33.888527"
   y1="1.5261059"
   x2="3.4561808"
   y2="34.112953"
   gradientUnits="userSpaceOnUse" />
	</defs>
    <sodipodi:namedview
   id="namedview63"
   pagecolor="#ffffff"
   bordercolor="#999999"
   borderopacity="1"
   inkscape:pageshadow="0"
   inkscape:pageopacity="0"
   inkscape:pagecheckerboard="0"
   showgrid="false"
   inkscape:zoom="22.278926"
   inkscape:cx="18.111286"
   inkscape:cy="18.201057"
   inkscape:window-width="1920"
   inkscape:window-height="1001"
   inkscape:window-x="3221"
   inkscape:window-y="2691"
   inkscape:window-maximized="1"
   inkscape:current-layer="Capa_1" />
    <g
   id="g30">
	<g
   id="g28">
		<path
   d="M30.224,3.948h-1.098V2.75c0-1.517-1.197-2.75-2.67-2.75c-1.474,0-2.67,1.233-2.67,2.75v1.197h-2.74V2.75    c0-1.517-1.197-2.75-2.67-2.75c-1.473,0-2.67,1.233-2.67,2.75v1.197h-2.74V2.75c0-1.517-1.197-2.75-2.67-2.75    c-1.473,0-2.67,1.233-2.67,2.75v1.197H6.224c-2.343,0-4.25,1.907-4.25,4.25v24c0,2.343,1.907,4.25,4.25,4.25h24    c2.344,0,4.25-1.907,4.25-4.25v-24C34.474,5.855,32.567,3.948,30.224,3.948z M25.286,2.75c0-0.689,0.525-1.25,1.17-1.25    c0.646,0,1.17,0.561,1.17,1.25v4.896c0,0.689-0.524,1.25-1.17,1.25c-0.645,0-1.17-0.561-1.17-1.25V2.75z M17.206,2.75    c0-0.689,0.525-1.25,1.17-1.25s1.17,0.561,1.17,1.25v4.896c0,0.689-0.525,1.25-1.17,1.25s-1.17-0.561-1.17-1.25V2.75z M9.125,2.75    c0-0.689,0.525-1.25,1.17-1.25s1.17,0.561,1.17,1.25v4.896c0,0.689-0.525,1.25-1.17,1.25s-1.17-0.561-1.17-1.25V2.75z     M31.974,32.198c0,0.965-0.785,1.75-1.75,1.75h-24c-0.965,0-1.75-0.785-1.75-1.75v-22h27.5V32.198z"
   id="path2"
   style="fill-opacity:1;" />
        <rect
   x="6.724"
   y="14.626"
   width="4.595"
   height="4.089"
   id="rect4"
   style="fill-opacity:1;" />
        <rect
   x="12.857"
   y="14.626"
   width="4.596"
   height="4.089"
   id="rect6"
   style="fill-opacity:1;" />
        <rect
   x="18.995"
   y="14.626"
   width="4.595"
   height="4.089"
   id="rect8"
   style="fill-opacity:1;" />
        <rect
   x="25.128"
   y="14.626"
   width="4.596"
   height="4.089"
   id="rect10"
   style="fill-opacity:1;" />
        <rect
   x="6.724"
   y="20.084"
   width="4.595"
   height="4.086"
   id="rect12"
   style="fill-opacity:1;" />
        <rect
   x="12.857"
   y="20.084"
   width="4.596"
   height="4.086"
   id="rect14"
   style="fill-opacity:1;" />
        <rect
   x="18.995"
   y="20.084"
   width="4.595"
   height="4.086"
   id="rect16"
   style="fill-opacity:1;" />
        <rect
   x="25.128"
   y="20.084"
   width="4.596"
   height="4.086"
   id="rect18"
   style="fill-opacity:1;" />
        <rect
   x="6.724"
   y="25.54"
   width="4.595"
   height="4.086"
   id="rect20"
   style="fill-opacity:1;" />
        <rect
   x="12.857"
   y="25.54"
   width="4.596"
   height="4.086"
   id="rect22"
   style="fill-opacity:1;" />
        <rect
   x="18.995"
   y="25.54"
   width="4.595"
   height="4.086"
   id="rect24"
   style="fill-opacity:1;" />
        <rect
   x="25.128"
   y="25.54"
   width="4.596"
   height="4.086"
   id="rect26"
   style="fill-opacity:1;" />
	</g>
</g>
    <g
   id="g32">
</g>
    <g
   id="g34">
</g>
    <g
   id="g36">
</g>
    <g
   id="g38">
</g>
    <g
   id="g40">
</g>
    <g
   id="g42">
</g>
    <g
   id="g44">
</g>
    <g
   id="g46">
</g>
    <g
   id="g48">
</g>
    <g
   id="g50">
</g>
    <g
   id="g52">
</g>
    <g
   id="g54">
</g>
    <g
   id="g56">
</g>
    <g
   id="g58">
</g>
    <g
   id="g60">
</g>
</svg>
