<?xml version="1.0" encoding="UTF-8" standalone="no"?>
<!-- Created with Inkscape (http://www.inkscape.org/) -->

<svg
   width="225"
   height="110"
   viewBox="0 0 59.53125 29.104185"
   version="1.1"
   id="svg5"
   inkscape:version="1.1 (c68e22c387, 2021-05-23)"
   sodipodi:docname="instruments.svg"
   xmlns:inkscape="http://www.inkscape.org/namespaces/inkscape"
   xmlns:sodipodi="http://sodipodi.sourceforge.net/DTD/sodipodi-0.dtd"
   xmlns="http://www.w3.org/2000/svg"
   xmlns:svg="http://www.w3.org/2000/svg">
  <sodipodi:namedview
     id="namedview7"
     pagecolor="#ffffff"
     bordercolor="#999999"
     borderopacity="1"
     inkscape:pageshadow="0"
     inkscape:pageopacity="0"
     inkscape:pagecheckerboard="0"
     inkscape:document-units="mm"
     showgrid="false"
     units="px"
     fit-margin-top="0"
     fit-margin-left="0"
     fit-margin-right="0"
     fit-margin-bottom="0"
     inkscape:zoom="8.1840269"
     inkscape:cx="133.73612"
     inkscape:cy="68.731446"
     inkscape:window-width="3840"
     inkscape:window-height="2081"
     inkscape:window-x="-9"
     inkscape:window-y="-9"
     inkscape:window-maximized="1"
     inkscape:current-layer="layer2" />
  <style>
    path {
      fill:#000000;
    }
    <!--@media (prefers-color-scheme: dark) {
      path {
        fill:#ffffff;
      }
    }-->
  </style>
  <defs
     id="defs2" />
  <g
     inkscape:groupmode="layer"
     id="layer2"
     inkscape:label="Layer 2"
     style="display:inline">
    <path
       style="stroke-width:0.320468"
       d="m 32.310314,28.683764 c -0.219309,-0.203981 -0.398756,-0.829829 -0.398756,-1.390776 0,-1.019901 0,-1.019901 -10.467357,-1.019901 -10.467361,0 -10.467361,0 -10.472449,0.84992 -0.0095,1.56813 -0.240307,1.650888 -4.3414382,1.555917 C 2.83556,28.591044 2.83556,28.591044 2.7324272,27.432067 2.6320661,26.304267 2.5939274,26.273087 1.3146459,26.273087 H 0 l 0.08859303,-8.112852 0.088593,-8.112852 5.55097587,-0.08467 5.5509781,-0.08467 0.09808,-2.0787501 c 0.15519,-3.2893462 1.593412,-3.3717992 1.593412,-0.09136 V 9.892855 h 8.473579 8.473571 V 7.7079335 c 0,-3.2804482 1.438225,-3.1979952 1.593419,0.09136 l 0.09809,2.0787498 5.550967,0.08467 c 5.550983,0.08467 5.648847,0.0801 5.654119,1.2436557 0.0061,1.340687 0.08645,1.887544 -0.702373,1.863645 -0.764118,-0.02315 -0.732966,-0.487677 -0.775928,-1.168257 -0.02759,-0.437119 -2.690725,-0.46359 -19.927411,-0.46359 H 1.6725195 v 5.099507 5.099508 H 19.20943 36.746346 l 0.963736,-3.476937 c 0.530064,-1.912315 1.094137,-3.928938 1.253502,-4.481385 0.289754,-1.004448 0.289754,-1.004448 3.929405,-1.004448 h 3.639648 V 10.201924 7.7294355 H 43.556619 40.5806 L 39.214794,5.5543837 C 37.835385,3.3576499 37.649583,2.4026815 38.569536,2.2379015 c 0.317625,-0.0569 0.970367,0.6532757 1.772163,1.9280818 l 1.269327,2.0181491 h 5.629664 5.629653 L 54.22462,4.1752353 c 2.097472,-3.1113312 3.515513,-2.5015445 1.591837,0.6845237 -1.747786,2.8947645 -1.705385,2.8696765 -4.849308,2.8696765 h -2.773022 v 2.4620315 2.462034 l 3.551785,0.08772 3.551785,0.08772 2.088856,7.417465 c 2.301962,8.174205 2.33444,8.3514 1.580056,8.620644 -0.980102,0.349798 -22.732644,0.210609 -23.4573,-0.150096 -0.490626,-0.244217 1.76878,-0.54303 1.071862,0.06696 -0.495008,0.433261 -3.772957,0.362939 -4.270857,-0.100136 z m 3.132185,-1.912133 -1.117434,-0.03966 c -1.123278,-0.03987 -1.032143,0.69601 0.145048,0.673175 0.415663,-0.0081 0.823193,-0.0205 0.823193,-0.0205 0,0 0.14919,-1.808253 0.14919,-1.356639 z m 22.055945,0.405384 c 0,-0.322934 -2.203988,-8.377904 -3.185972,-11.643797 L 53.824608,13.910644 H 47.34698 c -6.401381,0 -6.481396,0.0082 -6.797036,0.695389 -0.175667,0.382462 -1.004578,3.198781 -1.84203,6.258485 -0.83745,3.059704 -1.597801,5.806484 -1.68966,6.103956 -0.156514,0.506829 0.48249,0.540858 10.156588,0.540858 7.142503,0 10.323602,-0.102392 10.323602,-0.332319 z m -11.84586,-2.168743 c -3.086513,-0.831625 -4.252165,-5.002715 -2.027542,-7.255235 2.506792,-2.538237 6.886357,-1.732584 8.20321,1.509033 1.39836,3.442248 -2.222526,6.811329 -6.175668,5.746202 z m 3.770418,-2.196577 c 0.926458,-0.80418 1.226497,-2.05424 0.76438,-3.184699 -0.360262,-0.881315 -0.360262,-0.881315 -1.229828,0.255372 -0.852949,1.11495 -1.836691,1.462807 -2.274318,0.804214 -0.121573,-0.182856 0.16661,-0.839049 0.640271,-1.458205 0.712788,-0.931748 0.778234,-1.168919 0.379792,-1.376309 -0.650595,-0.338628 -2.687167,0.483178 -3.137695,1.266134 -1.742383,3.02801 2.184282,6.013787 4.857398,3.693493 z M 9.2322813,26.813946 c -0.092755,-0.258809 -0.887972,-0.386327 -2.4091543,-0.386327 -1.5211834,0 -2.3163994,0.127518 -2.4091554,0.386327 -0.102737,0.286667 0.5187536,0.386325 2.4091554,0.386325 1.8904007,0 2.5118935,-0.09967 2.4091543,-0.386325 z m 26.9299067,-3.013347 0.302241,-1.081713 -17.395953,0.08265 c -17.3959565,0.08265 -17.3959565,0.08265 -17.3959565,1.004448 0,0.921791 0,0.921791 16.7613965,0.921791 5.617435,0.01713 12.872309,0.0243 17.421142,0.09275 0.0471,-0.161611 0.140909,-0.424989 0.30713,-1.019933 z M 13.042731,19.108125 c -0.593284,-0.551801 -0.549329,-5.937108 0.05224,-6.401462 0.321151,-0.247897 2.860147,-0.327907 8.556651,-0.269638 l 8.099999,0.08284 v 3.399672 3.399671 l -8.152246,0.08252 c -6.061751,0.06136 -8.255951,-0.01394 -8.556652,-0.293609 z m 15.379714,-3.188582 v -1.854367 h -6.978244 -6.97824 l -0.09911,1.937822 -0.09911,1.937822 7.077344,-0.08346 7.07735,-0.08346 z M 17.356948,7.3585525 c -0.514037,-0.4780907 -0.514037,-1.8707698 0,-2.3488615 0.727096,-0.6762547 2.236256,-0.4476477 2.652379,0.4017787 0.806018,1.6453171 -1.308157,3.1973102 -2.652379,1.9470828 z M 22.951231,7.1316238 C 22.168418,5.7712074 22.76691,4.6388173 24.268727,4.6388173 c 0.475184,0 1.043413,0.1668937 1.262729,0.3708737 0.219317,0.2039797 0.398754,0.7324744 0.398754,1.1744314 0,1.5203651 -2.239473,2.2326565 -2.978979,0.9475014 z M 20.166515,2.5283205 c -0.690668,-0.7098137 -0.700258,-1.4142824 -0.02778,-2.03974914 1.41895,-1.31972696 3.75456,0.285974 2.665198,1.83228914 -0.647151,0.9186164 -1.853154,1.0134784 -2.637431,0.20746 z"
       id="path962"
       sodipodi:nodetypes="ssscsssccccccscccsccsssssccccccssccccccsscccssscccccsssssscsscscsscsssssssssssssscsssssssssccssccsccsccccscccccccccccsssssssssccscc" />
  </g>
</svg>
